<mxfile host="app.diagrams.net" modified="2021-03-29T22:08:52.137Z" agent="5.0 (Windows NT 10.0; Win64; x64) AppleWebKit/537.36 (KHTML, like Gecko) Chrome/89.0.4389.90 Safari/537.36" etag="fyb3Bi5WpS67bkx384Bk" version="14.5.3" type="github" pages="3">
  <diagram id="Go2muyTJUHyg5y_buQUr" name="Page-1">
    <mxGraphModel dx="2267" dy="1769" grid="1" gridSize="10" guides="1" tooltips="1" connect="1" arrows="1" fold="1" page="1" pageScale="1" pageWidth="827" pageHeight="1169" math="0" shadow="0">
      <root>
        <mxCell id="0" />
        <mxCell id="1" parent="0" />
        <mxCell id="XVF2itZyiFvzU18sELvf-66" value="e_nro_1&amp;gt;e_nro_3" style="strokeWidth=2;html=1;shape=mxgraph.flowchart.decision;whiteSpace=wrap;" parent="1" vertex="1">
          <mxGeometry x="30" y="535" width="130" height="100" as="geometry" />
        </mxCell>
        <mxCell id="XVF2itZyiFvzU18sELvf-18" style="edgeStyle=orthogonalEdgeStyle;rounded=0;orthogonalLoop=1;jettySize=auto;html=1;exitX=0.5;exitY=1;exitDx=0;exitDy=0;" parent="1" source="XVF2itZyiFvzU18sELvf-15" edge="1">
          <mxGeometry relative="1" as="geometry">
            <mxPoint x="420" y="180" as="targetPoint" />
          </mxGeometry>
        </mxCell>
        <mxCell id="XVF2itZyiFvzU18sELvf-1" value="start" style="ellipse;whiteSpace=wrap;html=1;" parent="1" vertex="1">
          <mxGeometry x="370" y="-10" width="110" height="100" as="geometry" />
        </mxCell>
        <mxCell id="XVF2itZyiFvzU18sELvf-13" style="edgeStyle=orthogonalEdgeStyle;rounded=0;orthogonalLoop=1;jettySize=auto;html=1;exitX=0.5;exitY=1;exitDx=0;exitDy=0;" parent="1" target="XVF2itZyiFvzU18sELvf-11" edge="1">
          <mxGeometry relative="1" as="geometry">
            <mxPoint x="415" y="280" as="sourcePoint" />
            <Array as="points">
              <mxPoint x="410" y="420" />
              <mxPoint x="410" y="420" />
            </Array>
          </mxGeometry>
        </mxCell>
        <mxCell id="XVF2itZyiFvzU18sELvf-16" style="edgeStyle=orthogonalEdgeStyle;rounded=0;orthogonalLoop=1;jettySize=auto;html=1;exitX=0.5;exitY=1;exitDx=0;exitDy=0;" parent="1" source="XVF2itZyiFvzU18sELvf-9" target="XVF2itZyiFvzU18sELvf-12" edge="1">
          <mxGeometry relative="1" as="geometry" />
        </mxCell>
        <mxCell id="XVF2itZyiFvzU18sELvf-9" value="e_nro_3" style="html=1;strokeWidth=2;shape=manualInput;whiteSpace=wrap;rounded=1;size=26;arcSize=11;" parent="1" vertex="1">
          <mxGeometry x="365" y="390" width="100" height="60" as="geometry" />
        </mxCell>
        <mxCell id="XVF2itZyiFvzU18sELvf-11" value="e_nro_2" style="html=1;strokeWidth=2;shape=manualInput;whiteSpace=wrap;rounded=1;size=26;arcSize=11;" parent="1" vertex="1">
          <mxGeometry x="364" y="310" width="100" height="60" as="geometry" />
        </mxCell>
        <mxCell id="XVF2itZyiFvzU18sELvf-65" style="edgeStyle=orthogonalEdgeStyle;rounded=0;orthogonalLoop=1;jettySize=auto;html=1;entryX=0.5;entryY=0;entryDx=0;entryDy=0;entryPerimeter=0;" parent="1" source="XVF2itZyiFvzU18sELvf-12" target="XVF2itZyiFvzU18sELvf-50" edge="1">
          <mxGeometry relative="1" as="geometry" />
        </mxCell>
        <mxCell id="XVF2itZyiFvzU18sELvf-71" style="edgeStyle=orthogonalEdgeStyle;rounded=0;orthogonalLoop=1;jettySize=auto;html=1;" parent="1" source="XVF2itZyiFvzU18sELvf-12" edge="1">
          <mxGeometry relative="1" as="geometry">
            <mxPoint x="100" y="530" as="targetPoint" />
          </mxGeometry>
        </mxCell>
        <mxCell id="XVF2itZyiFvzU18sELvf-12" value="e_nro_1&amp;gt;e_nro_2" style="strokeWidth=2;html=1;shape=mxgraph.flowchart.decision;whiteSpace=wrap;" parent="1" vertex="1">
          <mxGeometry x="364" y="480" width="126" height="100" as="geometry" />
        </mxCell>
        <mxCell id="XVF2itZyiFvzU18sELvf-23" style="edgeStyle=orthogonalEdgeStyle;rounded=0;orthogonalLoop=1;jettySize=auto;html=1;" parent="1" edge="1">
          <mxGeometry relative="1" as="geometry">
            <mxPoint x="30" y="660" as="targetPoint" />
            <mxPoint x="60" y="574.8235294117649" as="sourcePoint" />
          </mxGeometry>
        </mxCell>
        <mxCell id="XVF2itZyiFvzU18sELvf-72" value="" style="edgeStyle=orthogonalEdgeStyle;rounded=0;orthogonalLoop=1;jettySize=auto;html=1;" parent="1" source="XVF2itZyiFvzU18sELvf-25" target="XVF2itZyiFvzU18sELvf-28" edge="1">
          <mxGeometry relative="1" as="geometry" />
        </mxCell>
        <mxCell id="XVF2itZyiFvzU18sELvf-25" value="e_nro_1" style="strokeWidth=2;html=1;shape=mxgraph.flowchart.document2;whiteSpace=wrap;size=0.25;" parent="1" vertex="1">
          <mxGeometry x="-130" y="780" width="100" height="60" as="geometry" />
        </mxCell>
        <mxCell id="XVF2itZyiFvzU18sELvf-58" value="" style="edgeStyle=orthogonalEdgeStyle;rounded=0;orthogonalLoop=1;jettySize=auto;html=1;" parent="1" source="XVF2itZyiFvzU18sELvf-26" target="XVF2itZyiFvzU18sELvf-33" edge="1">
          <mxGeometry relative="1" as="geometry" />
        </mxCell>
        <mxCell id="XVF2itZyiFvzU18sELvf-26" value="e_nro_3" style="strokeWidth=2;html=1;shape=mxgraph.flowchart.document2;whiteSpace=wrap;size=0.25;" parent="1" vertex="1">
          <mxGeometry x="680" y="690" width="100" height="60" as="geometry" />
        </mxCell>
        <mxCell id="XVF2itZyiFvzU18sELvf-27" value="e_nro_2" style="strokeWidth=2;html=1;shape=mxgraph.flowchart.document2;whiteSpace=wrap;size=0.25;" parent="1" vertex="1">
          <mxGeometry x="-130" y="870" width="100" height="60" as="geometry" />
        </mxCell>
        <mxCell id="XVF2itZyiFvzU18sELvf-77" style="edgeStyle=orthogonalEdgeStyle;rounded=0;orthogonalLoop=1;jettySize=auto;html=1;" parent="1" source="XVF2itZyiFvzU18sELvf-28" edge="1">
          <mxGeometry relative="1" as="geometry">
            <mxPoint x="430" y="1230" as="targetPoint" />
            <Array as="points">
              <mxPoint x="-80" y="1138" />
              <mxPoint x="-20" y="1138" />
            </Array>
          </mxGeometry>
        </mxCell>
        <mxCell id="XVF2itZyiFvzU18sELvf-28" value="e_nro_3" style="strokeWidth=2;html=1;shape=mxgraph.flowchart.document2;whiteSpace=wrap;size=0.25;" parent="1" vertex="1">
          <mxGeometry x="-130" y="960" width="100" height="60" as="geometry" />
        </mxCell>
        <mxCell id="XVF2itZyiFvzU18sELvf-68" style="edgeStyle=orthogonalEdgeStyle;rounded=0;orthogonalLoop=1;jettySize=auto;html=1;entryX=0.5;entryY=0;entryDx=0;entryDy=0;entryPerimeter=0;" parent="1" source="XVF2itZyiFvzU18sELvf-30" target="XVF2itZyiFvzU18sELvf-43" edge="1">
          <mxGeometry relative="1" as="geometry" />
        </mxCell>
        <mxCell id="XVF2itZyiFvzU18sELvf-30" value="e_nro_3" style="strokeWidth=2;html=1;shape=mxgraph.flowchart.document2;whiteSpace=wrap;size=0.25;" parent="1" vertex="1">
          <mxGeometry x="220" y="680" width="100" height="60" as="geometry" />
        </mxCell>
        <mxCell id="XVF2itZyiFvzU18sELvf-61" value="" style="edgeStyle=orthogonalEdgeStyle;rounded=0;orthogonalLoop=1;jettySize=auto;html=1;" parent="1" source="XVF2itZyiFvzU18sELvf-31" target="XVF2itZyiFvzU18sELvf-38" edge="1">
          <mxGeometry relative="1" as="geometry" />
        </mxCell>
        <mxCell id="XVF2itZyiFvzU18sELvf-31" value="e_nro_1" style="strokeWidth=2;html=1;shape=mxgraph.flowchart.document2;whiteSpace=wrap;size=0.25;" parent="1" vertex="1">
          <mxGeometry x="90" y="770" width="100" height="60" as="geometry" />
        </mxCell>
        <mxCell id="XVF2itZyiFvzU18sELvf-32" value="e_nro_3" style="strokeWidth=2;html=1;shape=mxgraph.flowchart.document2;whiteSpace=wrap;size=0.25;" parent="1" vertex="1">
          <mxGeometry x="80" y="860" width="100" height="50" as="geometry" />
        </mxCell>
        <mxCell id="XVF2itZyiFvzU18sELvf-73" value="" style="edgeStyle=orthogonalEdgeStyle;rounded=0;orthogonalLoop=1;jettySize=auto;html=1;" parent="1" source="XVF2itZyiFvzU18sELvf-33" target="XVF2itZyiFvzU18sELvf-34" edge="1">
          <mxGeometry relative="1" as="geometry" />
        </mxCell>
        <mxCell id="XVF2itZyiFvzU18sELvf-33" value="e_nro_2" style="strokeWidth=2;html=1;shape=mxgraph.flowchart.document2;whiteSpace=wrap;size=0.19901960784313436;" parent="1" vertex="1">
          <mxGeometry x="680" y="810" width="100" height="70" as="geometry" />
        </mxCell>
        <mxCell id="mkeS5EE4HzlGK77ecyGI-13" style="edgeStyle=orthogonalEdgeStyle;rounded=0;orthogonalLoop=1;jettySize=auto;html=1;" edge="1" parent="1" source="XVF2itZyiFvzU18sELvf-34">
          <mxGeometry relative="1" as="geometry">
            <mxPoint x="570" y="1185.3333333333333" as="targetPoint" />
          </mxGeometry>
        </mxCell>
        <mxCell id="XVF2itZyiFvzU18sELvf-34" value="e_nro_1" style="strokeWidth=2;html=1;shape=mxgraph.flowchart.document2;whiteSpace=wrap;size=0.3566666666666674;" parent="1" vertex="1">
          <mxGeometry x="700" y="920" width="80" height="70" as="geometry" />
        </mxCell>
        <mxCell id="XVF2itZyiFvzU18sELvf-36" style="edgeStyle=orthogonalEdgeStyle;rounded=0;orthogonalLoop=1;jettySize=auto;html=1;exitX=1;exitY=0.5;exitDx=0;exitDy=0;exitPerimeter=0;" parent="1" source="XVF2itZyiFvzU18sELvf-35" edge="1">
          <mxGeometry relative="1" as="geometry">
            <mxPoint x="130" y="779.9999999999998" as="targetPoint" />
          </mxGeometry>
        </mxCell>
        <mxCell id="XVF2itZyiFvzU18sELvf-37" style="edgeStyle=orthogonalEdgeStyle;rounded=0;orthogonalLoop=1;jettySize=auto;html=1;exitX=0;exitY=0.5;exitDx=0;exitDy=0;exitPerimeter=0;" parent="1" source="XVF2itZyiFvzU18sELvf-35" target="XVF2itZyiFvzU18sELvf-25" edge="1">
          <mxGeometry relative="1" as="geometry" />
        </mxCell>
        <mxCell id="XVF2itZyiFvzU18sELvf-35" value="e_nro_2_&amp;gt;e_nro_3" style="strokeWidth=2;html=1;shape=mxgraph.flowchart.decision;whiteSpace=wrap;" parent="1" vertex="1">
          <mxGeometry x="-70" y="660" width="150" height="100" as="geometry" />
        </mxCell>
        <mxCell id="mkeS5EE4HzlGK77ecyGI-7" style="edgeStyle=orthogonalEdgeStyle;rounded=0;orthogonalLoop=1;jettySize=auto;html=1;" edge="1" parent="1" source="XVF2itZyiFvzU18sELvf-38">
          <mxGeometry relative="1" as="geometry">
            <mxPoint x="130" y="1230" as="targetPoint" />
          </mxGeometry>
        </mxCell>
        <mxCell id="XVF2itZyiFvzU18sELvf-38" value="e_nro_2" style="strokeWidth=2;html=1;shape=mxgraph.flowchart.document2;whiteSpace=wrap;size=0.25;" parent="1" vertex="1">
          <mxGeometry x="80" y="970" width="100" height="60" as="geometry" />
        </mxCell>
        <mxCell id="XVF2itZyiFvzU18sELvf-69" value="" style="edgeStyle=orthogonalEdgeStyle;rounded=0;orthogonalLoop=1;jettySize=auto;html=1;" parent="1" source="XVF2itZyiFvzU18sELvf-43" target="XVF2itZyiFvzU18sELvf-44" edge="1">
          <mxGeometry relative="1" as="geometry" />
        </mxCell>
        <mxCell id="XVF2itZyiFvzU18sELvf-43" value="e_nro_1" style="strokeWidth=2;html=1;shape=mxgraph.flowchart.document2;whiteSpace=wrap;size=0.25;" parent="1" vertex="1">
          <mxGeometry x="220" y="800" width="100" height="60" as="geometry" />
        </mxCell>
        <mxCell id="mkeS5EE4HzlGK77ecyGI-6" style="edgeStyle=orthogonalEdgeStyle;rounded=0;orthogonalLoop=1;jettySize=auto;html=1;" edge="1" parent="1" source="XVF2itZyiFvzU18sELvf-44">
          <mxGeometry relative="1" as="geometry">
            <mxPoint x="290" y="1400" as="targetPoint" />
            <Array as="points">
              <mxPoint x="270" y="1205" />
              <mxPoint x="360" y="1205" />
              <mxPoint x="360" y="1400" />
            </Array>
          </mxGeometry>
        </mxCell>
        <mxCell id="XVF2itZyiFvzU18sELvf-44" value="e_nro_2" style="strokeWidth=2;html=1;shape=mxgraph.flowchart.document2;whiteSpace=wrap;size=0.25;" parent="1" vertex="1">
          <mxGeometry x="220" y="950" width="100" height="60" as="geometry" />
        </mxCell>
        <mxCell id="XVF2itZyiFvzU18sELvf-45" value="e_nro_2" style="strokeWidth=2;html=1;shape=mxgraph.flowchart.document2;whiteSpace=wrap;size=0.25;" parent="1" vertex="1">
          <mxGeometry x="520" y="800" width="100" height="60" as="geometry" />
        </mxCell>
        <mxCell id="mkeS5EE4HzlGK77ecyGI-3" value="" style="edgeStyle=orthogonalEdgeStyle;rounded=0;orthogonalLoop=1;jettySize=auto;html=1;" edge="1" parent="1" source="XVF2itZyiFvzU18sELvf-46" target="XVF2itZyiFvzU18sELvf-47">
          <mxGeometry relative="1" as="geometry" />
        </mxCell>
        <mxCell id="mkeS5EE4HzlGK77ecyGI-4" style="edgeStyle=orthogonalEdgeStyle;rounded=0;orthogonalLoop=1;jettySize=auto;html=1;entryX=0.5;entryY=1;entryDx=0;entryDy=0;entryPerimeter=0;" edge="1" parent="1" source="XVF2itZyiFvzU18sELvf-46" target="XVF2itZyiFvzU18sELvf-45">
          <mxGeometry relative="1" as="geometry" />
        </mxCell>
        <mxCell id="XVF2itZyiFvzU18sELvf-46" value="e_nro_3" style="strokeWidth=2;html=1;shape=mxgraph.flowchart.document2;whiteSpace=wrap;size=0.25;" parent="1" vertex="1">
          <mxGeometry x="520" y="890" width="100" height="60" as="geometry" />
        </mxCell>
        <mxCell id="mkeS5EE4HzlGK77ecyGI-12" style="edgeStyle=orthogonalEdgeStyle;rounded=0;orthogonalLoop=1;jettySize=auto;html=1;" edge="1" parent="1" source="XVF2itZyiFvzU18sELvf-47">
          <mxGeometry relative="1" as="geometry">
            <mxPoint x="540" y="1240" as="targetPoint" />
          </mxGeometry>
        </mxCell>
        <mxCell id="XVF2itZyiFvzU18sELvf-47" value="e_nro_1" style="strokeWidth=2;html=1;shape=mxgraph.flowchart.document2;whiteSpace=wrap;size=0.25;" parent="1" vertex="1">
          <mxGeometry x="520" y="1030" width="100" height="60" as="geometry" />
        </mxCell>
        <mxCell id="XVF2itZyiFvzU18sELvf-53" style="edgeStyle=orthogonalEdgeStyle;rounded=0;orthogonalLoop=1;jettySize=auto;html=1;exitX=1;exitY=0.5;exitDx=0;exitDy=0;exitPerimeter=0;entryX=0.591;entryY=0.004;entryDx=0;entryDy=0;entryPerimeter=0;" parent="1" source="XVF2itZyiFvzU18sELvf-48" target="XVF2itZyiFvzU18sELvf-45" edge="1">
          <mxGeometry relative="1" as="geometry" />
        </mxCell>
        <mxCell id="XVF2itZyiFvzU18sELvf-75" style="edgeStyle=orthogonalEdgeStyle;rounded=0;orthogonalLoop=1;jettySize=auto;html=1;" parent="1" source="XVF2itZyiFvzU18sELvf-48" edge="1">
          <mxGeometry relative="1" as="geometry">
            <mxPoint x="370" y="819.9999999999995" as="targetPoint" />
          </mxGeometry>
        </mxCell>
        <mxCell id="XVF2itZyiFvzU18sELvf-48" value="e_nro1&amp;gt;e_nro_3" style="strokeWidth=2;html=1;shape=mxgraph.flowchart.decision;whiteSpace=wrap;" parent="1" vertex="1">
          <mxGeometry x="390" y="690" width="140" height="100" as="geometry" />
        </mxCell>
        <mxCell id="XVF2itZyiFvzU18sELvf-63" value="" style="edgeStyle=orthogonalEdgeStyle;rounded=0;orthogonalLoop=1;jettySize=auto;html=1;" parent="1" source="XVF2itZyiFvzU18sELvf-15" edge="1">
          <mxGeometry relative="1" as="geometry">
            <mxPoint x="415.0588235294117" y="220" as="targetPoint" />
          </mxGeometry>
        </mxCell>
        <mxCell id="XVF2itZyiFvzU18sELvf-15" value="e_nro,_1,e_nro2,e_nro3" style="shape=internalStorage;whiteSpace=wrap;html=1;dx=15;dy=15;rounded=1;arcSize=8;strokeWidth=2;" parent="1" vertex="1">
          <mxGeometry x="305" y="110" width="240" height="70" as="geometry" />
        </mxCell>
        <mxCell id="XVF2itZyiFvzU18sELvf-49" style="edgeStyle=orthogonalEdgeStyle;rounded=0;orthogonalLoop=1;jettySize=auto;html=1;exitX=0.5;exitY=1;exitDx=0;exitDy=0;" parent="1" source="XVF2itZyiFvzU18sELvf-1" target="XVF2itZyiFvzU18sELvf-15" edge="1">
          <mxGeometry relative="1" as="geometry">
            <mxPoint x="420" y="180" as="targetPoint" />
            <mxPoint x="425" y="90" as="sourcePoint" />
          </mxGeometry>
        </mxCell>
        <mxCell id="XVF2itZyiFvzU18sELvf-51" style="edgeStyle=orthogonalEdgeStyle;rounded=0;orthogonalLoop=1;jettySize=auto;html=1;entryX=0.5;entryY=0;entryDx=0;entryDy=0;entryPerimeter=0;" parent="1" source="XVF2itZyiFvzU18sELvf-50" target="XVF2itZyiFvzU18sELvf-48" edge="1">
          <mxGeometry relative="1" as="geometry" />
        </mxCell>
        <mxCell id="XVF2itZyiFvzU18sELvf-52" style="edgeStyle=orthogonalEdgeStyle;rounded=0;orthogonalLoop=1;jettySize=auto;html=1;entryX=0.5;entryY=0;entryDx=0;entryDy=0;entryPerimeter=0;" parent="1" source="XVF2itZyiFvzU18sELvf-50" target="XVF2itZyiFvzU18sELvf-26" edge="1">
          <mxGeometry relative="1" as="geometry" />
        </mxCell>
        <mxCell id="XVF2itZyiFvzU18sELvf-50" value="e_nro_2&amp;gt;e_nro_3" style="strokeWidth=2;html=1;shape=mxgraph.flowchart.decision;whiteSpace=wrap;" parent="1" vertex="1">
          <mxGeometry x="545" y="590" width="125" height="100" as="geometry" />
        </mxCell>
        <mxCell id="XVF2itZyiFvzU18sELvf-55" value="e_nro_2" style="strokeWidth=2;html=1;shape=mxgraph.flowchart.document2;whiteSpace=wrap;size=0.25;" parent="1" vertex="1">
          <mxGeometry x="360" y="820" width="100" height="60" as="geometry" />
        </mxCell>
        <mxCell id="XVF2itZyiFvzU18sELvf-56" value="e_nro_1" style="strokeWidth=2;html=1;shape=mxgraph.flowchart.document2;whiteSpace=wrap;size=0.25;" parent="1" vertex="1">
          <mxGeometry x="364" y="910" width="100" height="60" as="geometry" />
        </mxCell>
        <mxCell id="mkeS5EE4HzlGK77ecyGI-11" style="edgeStyle=orthogonalEdgeStyle;rounded=0;orthogonalLoop=1;jettySize=auto;html=1;" edge="1" parent="1" source="XVF2itZyiFvzU18sELvf-57">
          <mxGeometry relative="1" as="geometry">
            <mxPoint x="420" y="1240" as="targetPoint" />
            <Array as="points">
              <mxPoint x="410" y="1145" />
              <mxPoint x="540" y="1145" />
              <mxPoint x="540" y="1240" />
            </Array>
          </mxGeometry>
        </mxCell>
        <mxCell id="XVF2itZyiFvzU18sELvf-57" value="e_nro-#" style="strokeWidth=2;html=1;shape=mxgraph.flowchart.document2;whiteSpace=wrap;size=0.25;" parent="1" vertex="1">
          <mxGeometry x="360" y="990" width="100" height="60" as="geometry" />
        </mxCell>
        <mxCell id="XVF2itZyiFvzU18sELvf-64" value="e_nro_1" style="html=1;strokeWidth=2;shape=manualInput;whiteSpace=wrap;rounded=1;size=26;arcSize=11;" parent="1" vertex="1">
          <mxGeometry x="364" y="210" width="100" height="60" as="geometry" />
        </mxCell>
        <mxCell id="XVF2itZyiFvzU18sELvf-67" style="edgeStyle=orthogonalEdgeStyle;rounded=0;orthogonalLoop=1;jettySize=auto;html=1;exitX=1;exitY=0.5;exitDx=0;exitDy=0;exitPerimeter=0;" parent="1" source="XVF2itZyiFvzU18sELvf-66" edge="1">
          <mxGeometry relative="1" as="geometry">
            <mxPoint x="260" y="670" as="targetPoint" />
          </mxGeometry>
        </mxCell>
      </root>
    </mxGraphModel>
  </diagram>
  <diagram id="Az9ncNljgvuNf1Kjb4nX" name="Page-2">
    <mxGraphModel dx="868" dy="450" grid="1" gridSize="10" guides="1" tooltips="1" connect="1" arrows="1" fold="1" page="1" pageScale="1" pageWidth="827" pageHeight="1169" math="0" shadow="0">
      <root>
        <mxCell id="nNZl9pD_vpSA_4y78SpO-0" />
        <mxCell id="nNZl9pD_vpSA_4y78SpO-1" parent="nNZl9pD_vpSA_4y78SpO-0" />
      </root>
    </mxGraphModel>
  </diagram>
  <diagram id="DXISMzOtIT4EOwQWJjY9" name="Page-3">
    <mxGraphModel dx="1080" dy="450" grid="1" gridSize="10" guides="1" tooltips="1" connect="1" arrows="1" fold="1" page="1" pageScale="1" pageWidth="827" pageHeight="1169" math="0" shadow="0">
      <root>
        <mxCell id="z1TweMniSm3YzXBvuRPx-0" />
        <mxCell id="z1TweMniSm3YzXBvuRPx-1" parent="z1TweMniSm3YzXBvuRPx-0" />
      </root>
    </mxGraphModel>
  </diagram>
</mxfile>
